<svg width="97" height="26" viewBox="0 0 97 26" fill="none" xmlns="http://www.w3.org/2000/svg">
<path d="M36.4826 19.2476C36.4576 18.7697 36.4445 18.3125 36.4445 17.8796V12.2718C36.4495 11.599 36.3456 10.9304 36.1373 10.2946C35.9406 9.69783 35.6248 9.15273 35.2112 8.69635C34.7666 8.22144 34.2283 7.85616 33.6347 7.62661C32.908 7.34898 32.1389 7.21585 31.3664 7.23394C30.4177 7.22614 29.4756 7.40054 28.5859 7.74867C27.822 8.04111 27.1166 8.48204 26.5061 9.04871C26.4762 9.07779 26.458 9.11784 26.4552 9.16066C26.4523 9.20348 26.4651 9.24582 26.4908 9.27901L27.5673 10.6435C27.5812 10.6611 27.5984 10.6754 27.6178 10.6856C27.6372 10.6958 27.6583 10.7018 27.6799 10.7031C27.7016 10.7044 27.7232 10.701 27.7436 10.6931C27.7639 10.6853 27.7825 10.6731 27.7982 10.6574C28.2123 10.2613 28.6863 9.94133 29.2004 9.71083C29.8108 9.43044 30.4698 9.28768 31.1354 9.29168C32.0418 9.29168 32.7682 9.52198 33.3144 9.98258C33.8606 10.4432 34.134 11.1521 34.1348 12.1094V12.2959C34.1348 12.3177 34.1307 12.3393 34.1228 12.3594C34.1149 12.3795 34.1034 12.3978 34.0888 12.4132C34.0742 12.4286 34.0569 12.4408 34.0379 12.4491C34.0189 12.4575 33.9985 12.4618 33.9779 12.4618C33.0046 12.4664 32.04 12.5117 31.0842 12.5976C30.1595 12.668 29.2469 12.8614 28.368 13.1734C27.627 13.4298 26.9576 13.8764 26.42 14.4734C25.9239 15.0438 25.6763 15.8161 25.677 16.7903C25.677 17.5311 25.8179 18.154 26.0997 18.6592C26.3638 19.1442 26.7271 19.5609 27.1631 19.8786C27.5958 20.1882 28.0778 20.4129 28.5859 20.5419C29.0776 20.6756 29.5829 20.7456 30.0905 20.7503C31.0137 20.7503 31.8127 20.5611 32.4874 20.1826C33.1622 19.8027 33.7383 19.2535 34.1653 18.5832H34.2426C34.2431 19.1586 34.3023 19.7323 34.4191 20.2943C34.4272 20.3316 34.4471 20.3648 34.4754 20.3886C34.5036 20.4125 34.5387 20.4255 34.5749 20.4256H36.4271C36.4502 20.4256 36.4732 20.4203 36.4942 20.4099C36.5152 20.3996 36.5338 20.3845 36.5486 20.3657C36.5635 20.3469 36.5743 20.3249 36.5802 20.3012C36.5861 20.2775 36.587 20.2527 36.5829 20.2286C36.5303 19.9041 36.4969 19.5765 36.4826 19.2476ZM34.138 14.9813C34.138 16.0644 33.8348 16.9626 33.2283 17.6758C32.6218 18.3889 31.7546 18.7459 30.6266 18.7467C30.3254 18.7472 30.0249 18.7151 29.7299 18.6511C29.4471 18.5917 29.1774 18.4769 28.9346 18.3125C28.6996 18.1547 28.5023 17.9414 28.3582 17.6896C28.2045 17.4009 28.1291 17.073 28.1403 16.7419C28.1306 16.4987 28.1716 16.2562 28.2602 16.0316C28.3489 15.807 28.4831 15.6056 28.6535 15.4419C29.0273 15.0982 29.4698 14.8482 29.9478 14.7106C30.5166 14.5382 31.1008 14.429 31.691 14.3848C32.3316 14.3303 32.9512 14.3034 33.5497 14.3042H33.9855C34.0274 14.3042 34.0676 14.3218 34.0972 14.3531C34.1268 14.3844 34.1435 14.4269 34.1435 14.4711L34.138 14.9813ZM19.1716 12.1866C17.0046 12.7427 14.0575 13.1619 9.97731 13.1619C5.80236 13.1619 2.95005 12.7427 0.783035 12.1866C-0.797827 11.7812 -0.785843 3.70229 8.62743 2.98605C9.17217 2.19958 8.87147 0.655412 8.53155 0.222447C8.51637 0.200108 8.50772 0.173548 8.50669 0.146064C8.50565 0.11858 8.51228 0.0913794 8.52573 0.0678369C8.53919 0.0442943 8.55889 0.0254461 8.58239 0.0136283C8.60589 0.00181039 8.63216 -0.00245684 8.65793 0.001357C8.8487 0.0284039 9.03519 0.0822335 9.21249 0.161418C10.6593 0.810865 11.3741 2.59684 11.532 3.00908C20.7394 3.82089 20.7405 11.7835 19.1716 12.1866ZM18.8088 14.3203C18.9482 16.4989 18.7968 23.2824 11.2913 24.8047C10.887 25.1686 10.2159 26.0046 9.97187 26C9.72782 25.9954 9.05669 25.1686 8.65248 24.8047C1.09027 23.4344 0.983504 16.5139 1.13494 14.3168C1.14037 14.2371 1.16185 14.1594 1.19795 14.0891C1.23405 14.0188 1.28394 13.9575 1.34428 13.9092C1.40461 13.8609 1.47401 13.8268 1.54782 13.8091C1.62164 13.7914 1.69817 13.7906 1.7723 13.8067C3.01106 14.0739 6.13029 14.5874 9.9686 14.5874C13.8069 14.5874 16.9294 14.0739 18.1693 13.8067C18.2438 13.7904 18.3207 13.7912 18.395 13.809C18.4692 13.8267 18.5389 13.8611 18.5995 13.9098C18.6601 13.9584 18.7102 14.0203 18.7463 14.0911C18.7824 14.1619 18.8037 14.24 18.8088 14.3203ZM85.0241 10.4305C85.2078 11.09 85.2988 11.7744 85.2943 12.4618V20.2574C85.2943 20.2795 85.2902 20.3013 85.2822 20.3216C85.2742 20.3419 85.2625 20.3604 85.2477 20.3759C85.2329 20.3914 85.2154 20.4037 85.1961 20.412C85.1768 20.4203 85.1561 20.4246 85.1353 20.4244H83.0402C82.9983 20.4244 82.9581 20.4068 82.9285 20.3755C82.8988 20.3442 82.8822 20.3017 82.8822 20.2574V13.3012C82.8843 12.8019 82.8456 12.3034 82.7667 11.8112C82.7001 11.3717 82.5568 10.9492 82.344 10.5652C82.1382 10.2038 81.8468 9.90537 81.4985 9.69931C81.1404 9.48206 80.6792 9.37344 80.1149 9.37344C79.6665 9.36189 79.2215 9.45977 78.8147 9.65948C78.4079 9.85919 78.0501 10.1553 77.7692 10.5249C77.162 11.2926 76.8587 12.3174 76.8595 13.5995V20.2574C76.8595 20.3017 76.8428 20.3442 76.8132 20.3755C76.7836 20.4068 76.7434 20.4244 76.7015 20.4244H74.6085C74.5667 20.4244 74.5265 20.4068 74.4968 20.3755C74.4672 20.3442 74.4506 20.3017 74.4506 20.2574V10.3545C74.4506 10.0114 74.4419 9.56919 74.4244 9.02799C74.4103 8.56739 74.3885 8.14478 74.3623 7.7717C74.3605 7.74879 74.3632 7.72573 74.3703 7.70399C74.3774 7.68225 74.3886 7.6623 74.4034 7.64541C74.4181 7.62852 74.4361 7.61505 74.456 7.60587C74.4759 7.59668 74.4975 7.59198 74.5192 7.59206H76.4868C76.5258 7.59184 76.5634 7.60692 76.5924 7.63437C76.6214 7.66182 76.6397 7.69969 76.6437 7.7406C76.6699 8.02733 76.6906 8.34399 76.7058 8.68829C76.7218 9.09439 76.7302 9.43331 76.7309 9.70507H76.8083C76.9685 9.35148 77.1803 9.02664 77.4358 8.74241C77.7057 8.44029 78.0115 8.17632 78.3455 7.95709C78.6967 7.72712 79.0761 7.54928 79.4732 7.42855C79.89 7.30191 80.3218 7.23833 80.7555 7.2397C81.5414 7.2397 82.2161 7.37942 82.7798 7.65885C83.3214 7.92135 83.8024 8.30523 84.1896 8.78387C84.5729 9.2656 84.8571 9.82638 85.0241 10.4305ZM96.6731 16.6337C96.6731 17.3913 96.5362 18.0324 96.2623 18.5567C95.9987 19.0691 95.6257 19.5095 95.1728 19.8429C94.704 20.1852 94.1773 20.4291 93.6214 20.5614C93.0335 20.7064 92.4317 20.7791 91.8281 20.7779C90.9002 20.7766 89.9816 20.5834 89.1239 20.2091C88.311 19.8654 87.5918 19.3133 87.031 18.6027C87.0055 18.5691 86.9933 18.5263 86.997 18.4834C87.0006 18.4405 87.0199 18.4007 87.0506 18.3724L88.5193 17.0528C88.5354 17.038 88.5543 17.0269 88.5746 17.0201C88.595 17.0133 88.6165 17.011 88.6378 17.0134C88.659 17.0158 88.6796 17.0228 88.6982 17.0339C88.7168 17.045 88.733 17.0601 88.7459 17.0781C89.0836 17.5424 89.5092 17.9272 89.9955 18.2078C90.5696 18.5516 91.2195 18.7291 91.8793 18.7225C92.1761 18.7238 92.4723 18.6922 92.7629 18.6281C93.0337 18.5694 93.2936 18.464 93.5321 18.316C93.7753 18.1719 93.9752 17.9583 94.1089 17.6996C94.2426 17.441 94.3048 17.1478 94.2882 16.8536C94.2882 16.2571 94.0191 15.8146 93.4808 15.5259C92.9426 15.2373 92.1524 14.9667 91.1101 14.7141C90.7004 14.6059 90.2861 14.4746 89.867 14.3203C89.4577 14.1727 89.0728 13.9582 88.7263 13.6847C88.3836 13.412 88.0999 13.0654 87.8939 12.6679C87.6675 12.2041 87.5572 11.6868 87.5736 11.1652C87.5577 10.5473 87.6944 9.93575 87.9702 9.39071C88.2247 8.90658 88.5797 8.48967 89.0085 8.17127C89.4523 7.84743 89.947 7.60922 90.4695 7.4677C91.0216 7.3136 91.5904 7.23618 92.1615 7.2374C93.0288 7.23683 93.8873 7.42089 94.6858 7.77861C95.3986 8.07902 96.0205 8.57902 96.4846 9.22489C96.5078 9.259 96.5179 9.30116 96.5129 9.34284C96.5078 9.38452 96.488 9.42262 96.4574 9.44944L95.041 10.7161C95.0244 10.7311 95.0051 10.7424 94.9842 10.7492C94.9633 10.7559 94.9413 10.758 94.9195 10.7553C94.8978 10.7526 94.8769 10.7451 94.858 10.7334C94.8392 10.7217 94.8228 10.706 94.81 10.6873C94.5327 10.2742 94.1707 9.93253 93.751 9.6878C93.2424 9.38464 92.6669 9.22929 92.083 9.23756C91.8071 9.23803 91.532 9.27008 91.2626 9.33313C91.0055 9.38961 90.7589 9.49036 90.5327 9.63137C90.3266 9.75876 90.1511 9.93447 90.0195 10.1449C89.8857 10.3772 89.8191 10.6458 89.8278 10.9176C89.8192 11.168 89.8801 11.4155 90.0031 11.6298C90.126 11.844 90.3055 12.0155 90.5196 12.1232C90.9808 12.3842 91.6708 12.6234 92.5896 12.8406C93.1378 12.9751 93.6771 13.1471 94.2043 13.3553C94.6678 13.5355 95.1039 13.7865 95.4986 14.1004C95.856 14.3859 96.1495 14.7511 96.3582 15.1701C96.5739 15.6238 96.6819 16.126 96.6731 16.6337ZM72.581 7.47576L72.4927 9.4955C72.4919 9.51926 72.4862 9.54254 72.476 9.56376C72.4659 9.58499 72.4515 9.60366 72.434 9.61851C72.4164 9.63336 72.396 9.64405 72.3742 9.64985C72.3524 9.65564 72.3297 9.65641 72.3075 9.6521C72.0029 9.58852 71.693 9.55727 71.3825 9.55883C70.8604 9.5452 70.3424 9.66115 69.8703 9.89737C69.4561 10.112 69.0927 10.422 68.807 10.8048C68.5193 11.1958 68.3058 11.6419 68.1783 12.1186C68.0406 12.6251 67.9716 13.1496 67.9735 13.6766V20.2574C67.9735 20.3017 67.9569 20.3442 67.9272 20.3755C67.8976 20.4068 67.8574 20.4244 67.8155 20.4244H65.7171C65.6753 20.4244 65.6351 20.4068 65.6054 20.3755C65.5758 20.3442 65.5592 20.3017 65.5592 20.2574V10.3545C65.5592 10.0114 65.5505 9.56919 65.533 9.02799C65.5189 8.56739 65.4982 8.14478 65.4709 7.7717C65.4691 7.74879 65.4718 7.72573 65.4789 7.70399C65.486 7.68225 65.4972 7.6623 65.512 7.64541C65.5267 7.62852 65.5447 7.61505 65.5646 7.60587C65.5845 7.59668 65.6061 7.59198 65.6278 7.59206H67.5954C67.6344 7.59184 67.672 7.60692 67.701 7.63437C67.73 7.66182 67.7483 7.69969 67.7523 7.7406C67.7785 8.02963 67.7992 8.35551 67.8144 8.71593C67.8308 9.13968 67.8406 9.48743 67.8406 9.75228H67.9168C68.2484 9.00752 68.7693 8.37482 69.4214 7.92485C70.078 7.46438 70.8506 7.22362 71.6386 7.23394C71.9116 7.22976 72.1842 7.25483 72.4524 7.30879C72.489 7.31633 72.5218 7.33717 72.5453 7.36768C72.5688 7.39818 72.5814 7.43643 72.581 7.47576ZM49.4836 18.658C49.5135 18.6872 49.5315 18.7276 49.5337 18.7706C49.5359 18.8136 49.5223 18.8558 49.4956 18.8883C48.9882 19.4715 48.368 19.9325 47.6772 20.2402C46.8494 20.605 45.9592 20.7849 45.0624 20.7687C44.1741 20.7785 43.2918 20.6134 42.4607 20.2816C41.6942 19.9748 40.9931 19.5097 40.3983 18.9136C39.8078 18.3148 39.3402 17.594 39.0244 16.796C38.6811 15.9113 38.511 14.9621 38.5243 14.0059C38.5127 13.0598 38.6783 12.1206 39.0114 11.2423C39.32 10.4379 39.7825 9.70947 40.37 9.10283C40.9618 8.49876 41.6639 8.02857 42.4335 7.72103C43.2559 7.391 44.1293 7.22582 45.009 7.23394C45.8843 7.2386 46.7504 7.42238 47.5596 7.77515C48.3027 8.07705 48.9612 8.57304 49.4738 9.21683C49.4987 9.25118 49.5099 9.29437 49.5053 9.33733C49.5006 9.38028 49.4803 9.41964 49.4488 9.44713L47.9583 10.7241C47.9422 10.7383 47.9235 10.7489 47.9034 10.7553C47.8833 10.7617 47.8622 10.7637 47.8413 10.7612C47.8205 10.7587 47.8003 10.7518 47.782 10.7409C47.7637 10.73 47.7477 10.7153 47.735 10.6977C47.4503 10.3156 47.0875 10.0066 46.6738 9.79374C46.1671 9.51539 45.6041 9.37116 45.033 9.37344C44.4536 9.36145 43.8794 9.4911 43.3552 9.75228C42.8787 9.99654 42.4553 10.3428 42.1121 10.7691C41.7645 11.2038 41.4989 11.7049 41.3298 12.2453C40.971 13.3884 40.971 14.6234 41.3298 15.7666C41.4989 16.3069 41.7645 16.8081 42.1121 17.2428C42.4577 17.6714 42.8855 18.0176 43.3672 18.2584C43.8975 18.5089 44.4718 18.6384 45.0526 18.6384C45.6335 18.6384 46.2078 18.5089 46.7381 18.2584C47.1739 18.0452 47.5628 17.7381 47.8799 17.3568C47.9078 17.3255 47.9462 17.307 47.9868 17.305C48.0275 17.3031 48.0673 17.318 48.0978 17.3464L49.4836 18.658ZM61.5041 9.12471C60.9009 8.51997 60.1913 8.0462 59.4155 7.73024C57.7476 7.06232 55.9061 7.06232 54.2382 7.73024C53.4653 8.04418 52.7597 8.5183 52.1627 9.12471C51.5758 9.72983 51.1094 10.453 50.791 11.2515C50.4506 12.1134 50.2808 13.0398 50.292 13.9737C50.2814 14.912 50.4512 15.8428 50.791 16.7097C51.1088 17.5167 51.575 18.249 52.1627 18.8641C52.7566 19.478 53.4629 19.9572 54.2382 20.2724C55.9061 20.9403 57.7476 20.9403 59.4155 20.2724C60.1936 19.955 60.9038 19.4762 61.5041 18.8641C62.0961 18.2527 62.5656 17.5216 62.8845 16.7143C63.2243 15.8474 63.394 14.9166 63.3834 13.9783C63.3947 13.0444 63.2249 12.118 62.8845 11.2561C62.5632 10.455 62.0909 9.73132 61.4964 9.12932L61.5041 9.12471ZM60.5965 15.7482C60.4249 16.2904 60.1592 16.7941 59.8132 17.2336C59.4645 17.6696 59.0298 18.0198 58.5395 18.2596C57.9915 18.5095 57.4009 18.6384 56.804 18.6384C56.2071 18.6384 55.6165 18.5095 55.0684 18.2596C54.5785 18.0197 54.1442 17.6695 53.7959 17.2336C53.4498 16.7941 53.1841 16.2904 53.0125 15.7482C52.6523 14.6084 52.6523 13.3758 53.0125 12.2361C53.1826 11.6973 53.4485 11.1978 53.7959 10.7645C54.1471 10.3353 54.5809 9.99019 55.0684 9.75228C55.6165 9.50235 56.2071 9.37342 56.804 9.37342C57.4009 9.37342 57.9915 9.50235 58.5395 9.75228C59.0273 9.99017 59.4615 10.3352 59.8132 10.7645C60.1606 11.1978 60.4264 11.6973 60.5965 12.2361C60.9567 13.3758 60.9567 14.6084 60.5965 15.7482Z" fill="#74C947"/>
</svg>
